<svg width="476" height="476" viewBox="0 0 476 476" fill="none" xmlns="http://www.w3.org/2000/svg">
<mask id="mask0_2_692" style="mask-type:luminance" maskUnits="userSpaceOnUse" x="0" y="0" width="476" height="476">
<path d="M475.3 0H0V475.3H475.3V0Z" fill="white"/>
</mask>
<g mask="url(#mask0_2_692)">
<mask id="mask1_2_692" style="mask-type:luminance" maskUnits="userSpaceOnUse" x="-24" y="-24" width="525" height="525">
<path d="M442.867 -23.7451L-23.9059 33.5845L33.4236 500.357L500.196 443.028L442.867 -23.7451Z" fill="white"/>
</mask>
<g mask="url(#mask1_2_692)">
<mask id="mask2_2_692" style="mask-type:luminance" maskUnits="userSpaceOnUse" x="7" y="7" width="463" height="463">
<path d="M210.1 9.29996C83.6 24.8 -6.4 140 9.2 266.5C24.6 393 139.8 483 266.3 467.4C392.8 451.9 482.8 336.7 467.3 210.2C451.7 83.7 336.6 -6.20004 210.1 9.29996Z" fill="white"/>
</mask>
<g mask="url(#mask2_2_692)">
<path d="M-19 37.4L439.2 -18.9L495.5 439.3L37.3 495.6L-19 37.4Z" fill="#EAC7C7"/>
</g>
</g>
</g>
<mask id="mask3_2_692" style="mask-type:luminance" maskUnits="userSpaceOnUse" x="2" y="3" width="470" height="470">
<path d="M208.8 4.99999C80.3 20.8 -11.1 137.8 4.70005 266.3C20.5 394.8 137.4 486.1 265.9 470.4C394.4 454.6 485.7 337.6 470 209.1C454.2 80.6 337.2 -10.7 208.8 4.99999Z" fill="white"/>
</mask>
<g mask="url(#mask3_2_692)">
<path d="M208.8 4.99999C80.3 20.8 -11.1 137.8 4.70005 266.3C20.5 394.8 137.4 486.1 265.9 470.4C394.4 454.6 485.7 337.6 470 209.1C454.2 80.6 337.2 -10.7 208.8 4.99999Z" stroke="#231F20" stroke-width="8" stroke-miterlimit="3.9851"/>
</g>
<path d="M208.8 4.99999C80.3 20.8 -11.1 137.8 4.70005 266.3C20.5 394.8 137.4 486.1 265.9 470.4C394.4 454.6 485.7 337.6 470 209.1C454.2 80.6 337.2 -10.7 208.8 4.99999Z" stroke="#231F20" stroke-width="8" stroke-miterlimit="10"/>
<mask id="mask4_2_692" style="mask-type:luminance" maskUnits="userSpaceOnUse" x="10" y="10" width="456" height="456">
<path d="M465.3 10H10V465.3H465.3V10Z" fill="white"/>
</mask>
<g mask="url(#mask4_2_692)">
<mask id="mask5_2_692" style="mask-type:luminance" maskUnits="userSpaceOnUse" x="-14" y="-14" width="504" height="504">
<path d="M434.767 -13.3773L-13.5457 41.6849L41.5166 489.997L489.829 434.935L434.767 -13.3773Z" fill="white"/>
</mask>
<g mask="url(#mask5_2_692)">
<mask id="mask6_2_692" style="mask-type:luminance" maskUnits="userSpaceOnUse" x="12" y="12" width="453" height="453">
<path d="M210.7 14.1999C86.9001 29.3999 -1.19994 142.1 14.0001 265.9C29.2001 389.7 141.9 477.7 265.7 462.5C389.5 447.3 477.6 334.6 462.4 210.8C447.2 87 334.5 -1.00007 210.7 14.1999Z" fill="white"/>
</mask>
<g mask="url(#mask6_2_692)">
<path d="M-13.4999 41.7L434.8 -13.3L489.8 435L41.5001 490L-13.4999 41.7Z" fill="#FAA0A0"/>
</g>
</g>
</g>
<mask id="mask7_2_692" style="mask-type:luminance" maskUnits="userSpaceOnUse" x="25" y="25" width="426" height="426">
<path d="M450.2 25.1H25V450.3H450.2V25.1Z" fill="white"/>
</mask>
<g mask="url(#mask7_2_692)">
<mask id="mask8_2_692" style="mask-type:luminance" maskUnits="userSpaceOnUse" x="5" y="5" width="466" height="467">
<path d="M419.969 5.6699L5.40161 56.5875L56.3192 471.155L470.886 420.237L419.969 5.6699Z" fill="white"/>
</mask>
<g mask="url(#mask8_2_692)">
<mask id="mask9_2_692" style="mask-type:luminance" maskUnits="userSpaceOnUse" x="29" y="29" width="419" height="419">
<path d="M212.7 31.1C98.2 45.2 16.8 149.4 30.9 263.9C45 378.4 149.2 459.8 263.7 445.7C378.2 431.6 459.6 327.5 445.5 213C431.4 98.5 327.2 17.1 212.7 31.1Z" fill="white"/>
</mask>
<g mask="url(#mask9_2_692)">
<path d="M5.40002 56.6L420 5.69995L470.9 420.3L56.3 471.2L5.40002 56.6Z" fill="#FAC898"/>
</g>
</g>
</g>
<mask id="mask10_2_692" style="mask-type:luminance" maskUnits="userSpaceOnUse" x="45" y="45" width="391" height="391">
<path d="M435.2 45.1H45V435.3H435.2V45.1Z" fill="white"/>
</mask>
<g mask="url(#mask10_2_692)">
<mask id="mask11_2_692" style="mask-type:luminance" maskUnits="userSpaceOnUse" x="23" y="24" width="431" height="429">
<path d="M23.8 71.3999L406.4 24.3999L453.1 405.4L70.6 452.4L23.8 71.3999Z" fill="white"/>
</mask>
<g mask="url(#mask11_2_692)">
<mask id="mask12_2_692" style="mask-type:luminance" maskUnits="userSpaceOnUse" x="45" y="46" width="386" height="385">
<path d="M214.8 47.8999C109.3 60.8999 34.3 156.7 47.2 261.9C60.1 367.1 156.1 441.9 261.6 429C367.1 416.1 442.1 320.2 429.2 215C416.2 109.8 320.3 34.9999 214.8 47.8999Z" fill="white"/>
</mask>
<g mask="url(#mask12_2_692)">
<path d="M23.8 71.3999L406.3 24.3999L453.1 405.4L70.6 452.4L23.8 71.3999Z" fill="#FFFAA0"/>
</g>
</g>
</g>
<mask id="mask13_2_692" style="mask-type:luminance" maskUnits="userSpaceOnUse" x="60" y="60" width="356" height="356">
<path d="M415.2 60.1H60V415.3H415.2V60.1Z" fill="white"/>
</mask>
<g mask="url(#mask13_2_692)">
<mask id="mask14_2_692" style="mask-type:luminance" maskUnits="userSpaceOnUse" x="42" y="42" width="393" height="391">
<path d="M42.8 85.5L391.6 42.7L434.2 390.1L85.5 432.9L42.8 85.5Z" fill="white"/>
</mask>
<g mask="url(#mask14_2_692)">
<mask id="mask15_2_692" style="mask-type:luminance" maskUnits="userSpaceOnUse" x="62" y="62" width="352" height="351">
<path d="M216.8 64.2C120.7 76 52.4001 163.3 64.2001 259.3C76.0001 355.2 163.4 423.5 259.5 411.6C355.6 399.8 423.9 312.5 412.2 216.5C400.3 120.6 312.9 52.4 216.8 64.2Z" fill="white"/>
</mask>
<g mask="url(#mask15_2_692)">
<path d="M42.8 85.4999L390.2 42.7999L432.9 390.2L85.5 432.9L42.8 85.4999Z" fill="#C1E1C1"/>
</g>
</g>
</g>
<mask id="mask16_2_692" style="mask-type:luminance" maskUnits="userSpaceOnUse" x="75" y="75" width="326" height="326">
<path d="M400.2 75.1H75V400.3H400.2V75.1Z" fill="white"/>
</mask>
<g mask="url(#mask16_2_692)">
<mask id="mask17_2_692" style="mask-type:luminance" maskUnits="userSpaceOnUse" x="61" y="61" width="354" height="354">
<path d="M61.5 100.3L376.5 61.6L415 375.4L100 414.1L61.5 100.3Z" fill="white"/>
</mask>
<g mask="url(#mask17_2_692)">
<mask id="mask18_2_692" style="mask-type:luminance" maskUnits="userSpaceOnUse" x="79" y="79" width="318" height="317">
<path d="M218.9 81C132 91.7 70.1001 170.6 80.8001 257.2C91.5001 343.8 170.5 405.4 257.5 394.8C344.4 384.1 406.3 305.2 395.6 218.6C384.9 131.9 305.8 70.3 218.9 81Z" fill="white"/>
</mask>
<g mask="url(#mask18_2_692)">
<path d="M61.5 100.3L376.5 61.6L415 375.4L100 414.1L61.5 100.3Z" fill="#A7C7E7"/>
</g>
</g>
</g>
<mask id="mask19_2_692" style="mask-type:luminance" maskUnits="userSpaceOnUse" x="95" y="95" width="286" height="286">
<path d="M380.2 95.1H95V380.3H380.2V95.1Z" fill="white"/>
</mask>
<g mask="url(#mask19_2_692)">
<mask id="mask20_2_692" style="mask-type:luminance" maskUnits="userSpaceOnUse" x="81" y="81" width="315" height="316">
<path d="M81 115.5L361 81.1L395.5 362.3L115.5 396.7L81 115.5Z" fill="white"/>
</mask>
<g mask="url(#mask20_2_692)">
<mask id="mask21_2_692" style="mask-type:luminance" maskUnits="userSpaceOnUse" x="97" y="97" width="283" height="283">
<path d="M221 98.3C143.7 107.8 88.7 178.2 98.2 255.6C107.7 333 178.1 388 255.4 378.5C332.7 369 387.7 298.6 378.2 221.2C368.7 143.9 298.3 88.8 221 98.3Z" fill="white"/>
</mask>
<g mask="url(#mask21_2_692)">
<path d="M81 115.5L361 81.1L395.4 361.2L115.3 395.6L81 115.5Z" fill="#C3B1E1"/>
</g>
</g>
</g>
<mask id="mask22_2_692" style="mask-type:luminance" maskUnits="userSpaceOnUse" x="100" y="140" width="276" height="241">
<path d="M375.2 140.1H100V380.2H375.2V140.1Z" fill="white"/>
</mask>
<g mask="url(#mask22_2_692)">
<mask id="mask23_2_692" style="mask-type:luminance" maskUnits="userSpaceOnUse" x="96" y="120" width="291" height="275">
<path d="M356.754 120.364L96.2229 152.362L125.942 394.334L386.473 362.335L356.754 120.364Z" fill="white"/>
</mask>
<g mask="url(#mask23_2_692)">
<mask id="mask24_2_692" style="mask-type:luminance" maskUnits="userSpaceOnUse" x="96" y="120" width="291" height="275">
<path d="M356.754 120.364L96.2229 152.362L125.942 394.334L386.473 362.335L356.754 120.364Z" fill="white"/>
</mask>
<g mask="url(#mask24_2_692)">
<path d="M277.5 313.7C278.1 313.1 278.5 312.6 279 312.2C279.4 311.9 280 311.7 280.5 311.5C282.7 310.6 284.9 309.7 287 308.8C288.4 308.2 289.8 307.6 291.1 306.9C293 305.8 295.1 305 296.4 303.1C296.5 302.9 296.6 302.8 296.8 302.5C295.4 302.1 294.1 302.1 292.8 302.4C291 302.7 289.2 303 287.4 303.5C286.1 303.8 284.9 304.1 283.7 304.6C282.6 305 281.5 305.1 280.4 304.9C280.4 304.8 280.4 304.7 280.4 304.6C280.7 304.5 281.1 304.4 281.3 304.3C282.3 304 283.3 303.9 284 303C284.1 302.8 284.3 302.7 284.4 302.7C286 302.1 287.7 301.4 289.4 300.8C290.7 300.2 291.9 299.5 293.1 298.8C294.1 298.3 295 297.7 295.9 297.1C296.5 296.7 297 296.2 297.5 295.8C298.1 295.3 297.9 294.9 297.4 294.7C296.6 294.4 295.8 294.2 295 294.4C292.2 294.9 289.5 295.4 286.8 296.1C284.2 296.7 281.7 297.5 279.1 298.1C278.3 298.3 277.4 298.2 276.5 298.2C276.5 298.1 276.5 297.9 276.4 297.8C276.5 297.7 276.7 297.6 276.8 297.5C278.2 296.8 279.7 296.2 281.1 295.4C283.4 294 285.5 292.4 287.8 291C287.9 290.9 288.1 290.8 288.2 290.7C288.7 290.4 289.2 290 288.8 289.5C288.6 289.2 288 289.1 287.6 289C286.8 289.1 285.9 289.3 285.1 289.6C284.5 289.7 284 290 283.4 290.1C280.7 290.9 278 291.6 275.3 292.5C273.2 293.2 271.3 294 269.3 294.7C268 295.1 266.6 295.4 265.3 295.7C265 295.8 264.6 295.4 264.2 295.3C264.4 295 264.5 294.6 264.8 294.3C267.3 292.6 269.5 290.6 271.1 288.2C271.7 287.3 272 286.2 272.2 285.1C272.4 284.3 271.8 284.2 271.2 284.6C269.2 286 267.2 287.5 265.1 288.8C263.5 289.9 261.8 290.9 260.2 291.8C258.9 292.6 257.6 293.3 256.4 293.9C254.5 294.7 252.6 295.6 250.6 296.3C246.1 298.1 241.2 298.9 236.5 299.4C231.9 299.8 227.4 299.8 222.8 299.9C221.8 299.9 220.9 299.9 220 299.8C217.4 299.6 214.8 299.3 212.2 299C210 298.7 207.7 298.5 205.4 298.1C203.9 297.9 202.4 297.4 200.8 297.1C199.5 296.8 198.2 296.5 196.9 296.2C194.4 295.5 191.9 294.8 189.4 294.1C188.5 293.9 187.5 293.6 186.7 293.3C184.1 292.4 181.5 291.6 179 290.6C175.8 289.3 172.7 288.1 169.6 286.7C166.3 285.2 163.1 283.7 159.9 282C157 280.5 154.2 278.8 151.4 277C148.9 275.5 146.4 273.8 144 272.1C141.3 270.2 138.7 268.1 136.2 266C133.5 263.7 130.8 261.3 128.3 258.8C126.4 257 124.7 255 123 253C121 250.5 119 248 117.1 245.4C115.9 243.8 114.9 242 113.8 240.2C112.6 238.2 111.5 236.2 110.4 234.2C109.8 233.1 109.3 232 108.9 230.9C107.4 226.6 105.4 222.5 104.8 217.8C104.4 214.6 103.5 211.5 103.3 208.4C103.1 204.8 103.4 201.2 103.4 197.8C103.4 194.7 104 191.7 104.9 188.7C105.8 185.6 107 182.4 108.4 179.4C109.5 177 110.9 174.7 112.4 172.5C114.1 170.1 116.1 167.8 118 165.5C120.5 162.7 123.5 160.4 126.6 158.2C129 156.5 131.7 155.1 134.2 153.7C138.4 151.4 142.8 150 147.2 148.4C147.4 148.3 147.5 148.3 147.7 148.2C154.7 146.5 161.7 144.7 169 144.5C173 144.4 177 144.9 180.9 145.3C183 145.5 185 146 187 146.6C190.6 147.7 194.2 149 197.8 150.4C200 151.2 202.2 152.2 204.2 153.3C206.9 154.7 209.4 156.2 212 157.9C215 159.9 218 162 220.8 164.3C223.6 166.5 226.1 169 228.6 171.5C230.9 173.7 232.9 176.2 235 178.7C235.3 179.1 235.6 179.5 235.9 179.9C236.1 179.8 236.2 179.7 236.4 179.6C237.3 178.3 238.3 177 239.3 175.7C240.9 173.7 242.6 171.8 244.4 169.9C245.9 168.3 247.5 166.8 249.2 165.4C251 164 252.8 162.5 254.7 161.2C256.5 159.9 258.3 158.8 260.2 157.8C261.5 157 263 156.3 264.4 155.7C265.8 155 267.1 154.3 268.5 153.7C270.1 153 271.8 152.1 273.5 151.6C276.1 150.7 278.9 150.1 281.6 149.3C289.4 146.8 297.5 146.3 305.7 145.9C309 145.7 312.3 146.1 315.6 146.3C318 146.5 320.5 146.7 322.9 147C324.6 147.2 326.2 147.7 327.9 148.1C328.9 148.3 329.9 148.5 330.9 148.8C333.8 149.7 336.6 150.4 339.3 151.5C342 152.6 344.4 154.2 346.9 155.5C350 157.1 352.4 159.5 354.5 162.2C355.3 163.3 355.8 164.6 356.6 165.7C358.6 168.8 358.7 172.3 358.7 175.8C358.7 177.5 358.3 179.3 357.8 180.9C357 183.3 356 185.6 354.8 187.8C353.9 189.6 352.6 191.4 351.5 193.1C350.3 194.8 348.9 196.6 347.5 198.2C346.2 199.7 344.8 201.2 343.4 202.6C342.5 203.5 341.6 204.5 340.7 205.3C339.5 206.4 338.4 207.5 337.2 208.5C336 209.6 334.7 210.7 333.5 211.7C331.6 213.2 329.6 214.8 327.6 216.4C326.3 217.4 325 218.4 323.7 219.4C322.1 220.5 320.5 221.6 318.9 222.6C317.2 223.7 315.6 224.9 313.9 226C313.1 226.5 312.3 227 311.5 227.5C309.6 228.6 307.7 229.7 305.8 230.8C304.1 231.7 302.4 232.5 300.8 233.5C298.7 234.7 296.8 235.9 294.7 236.9C293.4 237.6 292 238.1 290.7 238.8C289.1 239.6 287.5 240.4 285.8 241.1C284.2 241.8 282.7 242.4 281.2 243.1C280.2 243.5 279.2 243.9 278.2 244.3C276.1 245 274.2 245.7 272.1 246.4C269.1 247.4 265.9 248.3 262.9 249.3C261.6 249.7 260.3 250 259 250.2C254.2 251.1 249.4 252 244.6 252.6C241.1 253 237.4 253.1 233.9 253C231.8 253 229.6 252.4 227.5 252.1C225.9 251.8 224.2 251.6 222.6 251.1C220.8 250.6 218.9 249.9 217 249.2C215.4 248.7 213.8 247.9 212.2 247.4C211.8 247.3 211 247.3 210.8 247.5C210.5 247.7 210.5 248.6 210.8 248.9C211.5 249.9 212.1 251 213.2 251.6C215.1 252.7 217.2 253.6 219.2 254.5C219.5 254.6 219.6 254.9 219.9 255C219.6 255.2 219.4 255.7 219.1 255.7C217.4 255.7 215.7 255.8 214 255.6C212.1 255.5 210.2 255.1 208.4 254.9C205.7 254.5 202.9 254.2 200.2 254C199.3 253.9 198.4 254.1 197.5 254.2C197.3 254.2 196.9 254.6 197 254.8C197 255.2 197.1 255.6 197.4 255.8C198.5 256.4 199.6 257.1 200.8 257.5C202.7 258.2 204.6 258.7 206.5 259.4C207.4 259.7 208.3 260.1 209.3 260.8C208.8 260.9 208.4 261.1 208 261C206.4 261 204.9 260.9 203.3 260.8C202.3 260.7 201.3 260.5 200.3 260.4C199.9 260.4 199.5 260.4 199 260.3C196.9 260.4 194.8 260.5 192.8 260.7C192.1 260.8 191.3 260.9 190.7 261.1C190.4 261.2 189.9 261.5 189.8 261.9C189.8 262.2 190 262.8 190.3 262.9C191.8 263.6 193.3 264.4 194.9 264.9C197.5 265.7 200.2 266.2 202.9 266.9C203.4 267 203.9 267 204.3 267C204.8 267.1 205.3 267.2 205.8 267.2C205.8 267.3 205.8 267.5 205.9 267.7C205.2 267.9 204.4 268.2 203.6 268.1C201.9 268 200.1 267.8 198.4 267.9C196.5 268 194.7 268.4 192.9 268.7C192.7 268.7 192.4 269 192.4 269.1C192.6 269.5 192.7 269.9 193.1 270.2C193.5 270.6 194.1 270.8 194.7 271C197.9 272 201.1 273.2 204.6 273.5C205.9 273.6 207.3 273.9 208.6 274.2C209.4 274.4 210.3 275 211.2 275.5C210.8 275.6 210.5 275.7 210.2 275.8C207.2 276.3 204.2 276.8 201.2 277.4C200.9 277.5 200.5 277.5 200.2 277.7C199.9 277.9 199.8 278.4 199.8 278.7C199.8 278.9 200.2 279.2 200.4 279.2C201.9 279.6 203.4 279.9 204.9 279.8C205.8 279.7 206.8 280.1 207.7 280.1C209 280.1 210.4 280.1 211.7 280.1C217.4 280.1 223.1 280.5 228.7 280C239.4 279 250.1 277.6 260.8 276.2C265.5 275.5 270.3 274.4 275 273.5C278.4 272.8 281.8 272.1 285.3 271.4C288.6 270.6 291.9 269.8 295.3 269.1C297.6 268.6 299.8 268 302.1 267.4C305.4 266.5 308.7 265.5 312 264.5C312.1 264.5 312.2 264.4 312.3 264.4C315.6 263.6 319 262.8 322.2 261.8C325.1 261 328 260 330.9 259C331.1 259 331.2 258.9 331.3 258.8C334.2 258 337.2 257.3 340 256.4C342.6 255.6 345.2 254.7 347.7 253.8C347.8 253.8 347.9 253.7 348 253.7C350.4 253 352.8 252.3 355.1 251.5C357.7 250.6 360.2 249.7 362.8 248.8C363.4 248.6 363.9 248.4 364.5 248.2C365.7 247.8 366.8 247.4 367.9 247C369 246.6 370 246.2 371.1 247.1C370.3 249.1 369.7 251.1 368.8 253C368.2 254.4 367.4 255.9 366.6 257.2C365.9 258.7 365.3 260.2 364.5 261.7C363.8 263.2 363 264.7 362.2 266.2C361.2 268.1 360.2 270 359.2 271.9C358.5 273.2 357.7 274.6 357 275.9C356 277.6 354.9 279.3 353.9 281C353.2 282.3 352.4 283.5 351.6 284.8C349.6 287.9 347.6 291.1 345.5 294.2C343.3 297.6 340.8 301 338.4 304.3C336.2 307.3 334 310.3 331.7 313.3C329.7 315.9 327.6 318.3 325.5 320.9C323.2 323.8 320.9 326.8 318.5 329.7C316.9 331.6 315.1 333.4 313.5 335.1C312.1 336.7 310.6 338.4 309.2 340C306.9 342.4 304.5 344.8 302.2 347.2C300.9 348.5 299.6 349.9 298.3 351.1C296.1 353.1 294 355.1 291.8 357C289.7 358.8 287.7 360.7 285.5 362.5C283.6 364 281.7 365.4 279.8 366.9C278.2 368.1 276.7 369.3 275 370.4C274 371.1 272.9 371.6 271.9 372.2C271.1 372.6 270.4 373.1 269.7 373.5C268.5 374.2 267.2 374.9 266 375.6C265.9 375.7 265.7 375.8 265.6 375.8C261.7 377.2 257.8 378.6 253.7 378.2C250.9 378 248 377.7 245.2 377C242 376.3 239 375.2 235.9 374.2C233.5 373.4 231.2 372.6 228.8 371.6C226.6 370.7 224.3 369.6 222.1 368.6C220 367.6 217.9 366.6 215.8 365.5C214 364.6 212.2 363.5 210.4 362.5C208.1 361.2 205.8 359.8 203.6 358.5C201 356.8 198.4 355.1 195.8 353.4C194.4 352.4 192.9 351.5 191.5 350.5C189.2 348.9 186.8 347.2 184.6 345.4C182.3 343.7 180.1 342 177.9 340.2C176.5 339.1 175.2 338 173.9 336.8C172.5 335.7 171.1 334.6 169.8 333.5C168 332.1 166.4 330.5 164.7 329.1C165.1 328.1 165.9 328.1 166.7 328.2C168.7 328.5 170.7 328.9 172.7 329.3C172.8 329.3 172.9 329.4 173 329.3C175.3 329.4 177.7 329.6 180.1 329.7C183.3 329.9 186.5 330.1 189.6 330.3C189.9 330.3 190.1 330.4 190.4 330.3C195.3 330.2 200.2 330 205.2 330C214.9 330 224.6 328.7 234.2 327.6C239.4 327 244.6 326.3 249.8 325.4C253.5 324.8 257.3 324.1 260.9 323.2C264.6 322.3 268.2 321.3 271.9 320.3C272 320.3 272 320.3 272 320.3C275.1 319.5 278.3 318.7 281.5 317.8C284.1 317 286.6 316.1 289.1 315.2C289.6 315 290.2 314.9 290.6 314.7C290.9 314.5 291.1 314.2 291.3 313.9C291 313.7 290.6 313.2 290.3 313.3C286.8 313.5 283.3 313.7 279.8 313.9C278.6 313.7 278.1 313.6 277.5 313.7Z" fill="#F4F3EE"/>
</g>
</g>
</g>
</svg>
